<svg width="40" height="40" viewBox="0 0 40 40" fill="none" xmlns="http://www.w3.org/2000/svg">
<path d="M17.6666 23.0002L14.0833 19.4168C13.7778 19.1113 13.3889 18.9585 12.9166 18.9585C12.4444 18.9585 12.0555 19.1113 11.75 19.4168C11.4444 19.7224 11.2916 20.1113 11.2916 20.5835C11.2916 21.0557 11.4444 21.4446 11.75 21.7502L16.5 26.5002C16.8333 26.8335 17.2222 27.0002 17.6666 27.0002C18.1111 27.0002 18.5 26.8335 18.8333 26.5002L28.25 17.0835C28.5555 16.7779 28.7083 16.3891 28.7083 15.9168C28.7083 15.4446 28.5555 15.0557 28.25 14.7502C27.9444 14.4446 27.5555 14.2918 27.0833 14.2918C26.6111 14.2918 26.2222 14.4446 25.9166 14.7502L17.6666 23.0002ZM20 36.6668C17.6944 36.6668 15.5278 36.229 13.5 35.3535C11.4722 34.4779 9.70831 33.2907 8.20831 31.7918C6.70831 30.2918 5.52109 28.5279 4.64665 26.5002C3.7722 24.4724 3.33442 22.3057 3.33331 20.0002C3.33331 17.6946 3.77109 15.5279 4.64665 13.5002C5.5222 11.4724 6.70942 9.7085 8.20831 8.2085C9.70831 6.7085 11.4722 5.52127 13.5 4.64683C15.5278 3.77239 17.6944 3.33461 20 3.3335C22.3055 3.3335 24.4722 3.77127 26.5 4.64683C28.5278 5.52239 30.2916 6.70961 31.7916 8.2085C33.2916 9.7085 34.4794 11.4724 35.355 13.5002C36.2305 15.5279 36.6678 17.6946 36.6666 20.0002C36.6666 22.3057 36.2289 24.4724 35.3533 26.5002C34.4778 28.5279 33.2905 30.2918 31.7916 31.7918C30.2916 33.2918 28.5278 34.4796 26.5 35.3552C24.4722 36.2307 22.3055 36.6679 20 36.6668Z" fill="#A77F6A"/>
</svg>
