<svg width="40" height="40" viewBox="0 0 40 40" fill="none" xmlns="http://www.w3.org/2000/svg">
<path d="M20 25.0002L26.6666 18.3335H13.3333L20 25.0002ZM20 36.6668C17.6944 36.6668 15.5278 36.229 13.5 35.3535C11.4722 34.4779 9.70831 33.2907 8.20831 31.7918C6.70831 30.2918 5.52109 28.5279 4.64665 26.5002C3.7722 24.4724 3.33442 22.3057 3.33331 20.0002C3.33331 17.6946 3.77109 15.5279 4.64665 13.5002C5.5222 11.4724 6.70942 9.7085 8.20831 8.2085C9.70831 6.7085 11.4722 5.52127 13.5 4.64683C15.5278 3.77239 17.6944 3.33461 20 3.3335C22.3055 3.3335 24.4722 3.77127 26.5 4.64683C28.5278 5.52239 30.2916 6.70961 31.7916 8.2085C33.2916 9.7085 34.4794 11.4724 35.355 13.5002C36.2305 15.5279 36.6678 17.6946 36.6666 20.0002C36.6666 22.3057 36.2289 24.4724 35.3533 26.5002C34.4778 28.5279 33.2905 30.2918 31.7916 31.7918C30.2916 33.2918 28.5278 34.4796 26.5 35.3552C24.4722 36.2307 22.3055 36.6679 20 36.6668ZM20 33.3335C23.7222 33.3335 26.875 32.0418 29.4583 29.4585C32.0416 26.8752 33.3333 23.7224 33.3333 20.0002C33.3333 16.2779 32.0416 13.1252 29.4583 10.5418C26.875 7.9585 23.7222 6.66683 20 6.66683C16.2778 6.66683 13.125 7.9585 10.5416 10.5418C7.95831 13.1252 6.66665 16.2779 6.66665 20.0002C6.66665 23.7224 7.95831 26.8752 10.5416 29.4585C13.125 32.0418 16.2778 33.3335 20 33.3335Z" fill="#A77F6A"/>
</svg>
