<svg width="40" height="40" viewBox="0 0 40 40" fill="none" xmlns="http://www.w3.org/2000/svg">
<path d="M20 36.6666C17.6944 36.6666 15.5278 36.2288 13.5 35.3533C11.4722 34.4777 9.70831 33.2905 8.20831 31.7916C6.70831 30.2916 5.52109 28.5277 4.64665 26.4999C3.7722 24.4721 3.33442 22.3055 3.33331 19.9999C3.33331 17.6944 3.77109 15.5277 4.64665 13.4999C5.5222 11.4721 6.70942 9.70825 8.20831 8.20825C9.70831 6.70825 11.4722 5.52103 13.5 4.64659C15.5278 3.77214 17.6944 3.33436 20 3.33325C22.3055 3.33325 24.4722 3.77103 26.5 4.64659C28.5278 5.52214 30.2916 6.70936 31.7916 8.20825C33.2916 9.70825 34.4794 11.4721 35.355 13.4999C36.2305 15.5277 36.6678 17.6944 36.6666 19.9999C36.6666 22.3055 36.2289 24.4721 35.3533 26.4999C34.4778 28.5277 33.2905 30.2916 31.7916 31.7916C30.2916 33.2916 28.5278 34.4794 26.5 35.3549C24.4722 36.2305 22.3055 36.6677 20 36.6666ZM20 33.3333C23.7222 33.3333 26.875 32.0416 29.4583 29.4583C32.0416 26.8749 33.3333 23.7221 33.3333 19.9999C33.3333 16.2777 32.0416 13.1249 29.4583 10.5416C26.875 7.95825 23.7222 6.66659 20 6.66659C16.2778 6.66659 13.125 7.95825 10.5416 10.5416C7.95831 13.1249 6.66665 16.2777 6.66665 19.9999C6.66665 23.7221 7.95831 26.8749 10.5416 29.4583C13.125 32.0416 16.2778 33.3333 20 33.3333Z" fill="#A77F6A"/>
</svg>
