<svg version="1.2" xmlns="http://www.w3.org/2000/svg" viewBox="0 0 1150 1049" width="1150" height="1049">
	<title>education-or-learning-concept-ai</title>
	<style>
		.s0 { fill: #e8f0ff } 
		.s1 { fill: #376edb } 
		.s2 { fill: #6699ff } 
		.s3 { fill: #ffffff } 
		.s4 { fill: #ff9c9c } 
		.s5 { fill: #cc3366 } 
		.s6 { fill: #265ecc } 
		.s7 { fill: #ff6666 } 
		.s8 { fill: #294a8c } 
		.s9 { fill: #2858b8 } 
		.s10 { fill: #477eed } 
		.s11 { fill: #1b3c7d } 
		.s12 { fill: #a11544 } 
		.s13 { fill: #b51b4e } 
		.s14 { fill: #1a1a1a } 
		.s15 { fill: #a81e4c } 
		.s16 { fill: #b81b50 } 
	</style>
	<g id="_Artboards_">
	</g>
	<g id="publicdomainvectors.org">
		<g id="&lt;Group&gt;">
			<path id="&lt;Path&gt;" class="s0" d="m574.8-0.1c317.5 0 574.8 257.4 574.8 574.8 0 196.5-98.6 369.9-248.9 473.6h-651.7c-150.4-103.7-249-277.1-249-473.6 0-317.4 257.4-574.8 574.8-574.8z"/>
			<path id="&lt;Path&gt;" class="s1" d="m459 308.9l10.7 7.9c9.1 6.9 14.2 17.8 13.6 29.2-0.6 11.3-6.9 21.7-16.7 27.5l33.2 9.7 33.2-9.7c-9.8-5.8-16-16.2-16.6-27.5-0.6-11.4 4.5-22.3 13.6-29.2l10.6-7.9-40.8-32z"/>
			<path id="&lt;Path&gt;" class="s2" d="m179.9 744.5h604.4c79.9 0 79.9 151.9 0 151.9h-604.4v-25.1h326.5c53.6 0 53.6-101.8 0-101.8h-326.5z"/>
			<path id="&lt;Path&gt;" class="s3" d="m208.2 871.3v-101.8h298.2c53.6 0 53.6 101.8 0 101.8z"/>
			<path id="&lt;Path&gt;" class="s4" d="m247.8 592.5h485.4c64.2 0 64.2 152 0 152h-485.4v-25.1h262.3c43 0 43-101.8 0-101.8h-262.3z"/>
			<path id="&lt;Path&gt;" class="s3" d="m270.6 719.4v-101.8h239.5c43 0 43 101.8 0 101.8z"/>
			<path id="&lt;Path&gt;" class="s5" d="m289.4 440.6h382.9c50.6 0 50.6 151.9 0 151.9h-382.9v-25h206.9c33.9 0 33.9-101.8 0-101.8h-206.9z"/>
			<path id="&lt;Path&gt;" class="s3" d="m307.3 567.5v-101.8h189c33.9 0 33.9 101.8 0 101.8z"/>
			<path id="&lt;Path&gt;" class="s2" d="m434.9 413h129.9v-39.5h-129.9z"/>
			<path id="&lt;Path&gt;" class="s6" d="m459 308.9l10.7 7.9c5.3 4 9.3 9.5 11.6 15.6 4.5-4.4 10.7-6.9 17.3-6.5 7.7 0.4 14.6 4.6 18.5 11 1.7-7.9 6.2-15.1 12.9-20.1l10.6-7.9-40.8-32z"/>
			<path id="&lt;Path&gt;" class="s7" d="m103.1 896.4h744.1c98.4 0 98.4 151.9 0 151.9h-744.1v-25.1h402c66 0 66-101.8 0-101.8h-402z"/>
			<path id="&lt;Path&gt;" class="s3" d="m137.9 1023.2v-101.8h367.2c66 0 66 101.8 0 101.8z"/>
			<g id="&lt;Group&gt;">
				<path id="&lt;Compound Path&gt;" fill-rule="evenodd" class="s8" d="m683.8 494l73.3 393.8c0.9 4.7-2.3 8.6-7 8.6-4.7 0-9.3-3.9-10.1-8.6l-73.3-393.8c-0.9-4.7 2.3-8.6 7-8.6 4.7 0 9.3 3.9 10.1 8.6zm-121-8.6c4.8 0 8.8 3.9 9 8.6l16.5 393.8c0.2 4.7-3.5 8.6-8.2 8.6-4.7 0-8.8-3.9-9-8.6l-16.5-393.8c-0.2-4.7 3.5-8.6 8.2-8.6z"/>
				<path id="&lt;Compound Path&gt;" class="s8" d="m691 573.3q-62.7 0-125.5 0 0.8 6.8 1.5 13.6 62.8 0 125.6 0-0.8-6.8-1.6-13.6zm-11.2-57.7h-116.2l1.6 13.7h116.1zm22.9 118.1q-67.5 0-135 0 0.8 6.9 1.6 13.7 67.5 0 135 0-0.8-6.8-1.6-13.7zm11.9 63.7q-72.1 0-144.3 0 0.8 6.8 1.6 13.6 72.1 0.1 144.3 0-0.8-6.8-1.6-13.6zm12.4 67.1q-76.9 0.1-153.7 0 0.8 6.9 1.5 13.7 76.9 0 153.8 0-0.8-6.8-1.6-13.7zm12.8 71.1h-163.1l1.5 13.7h163.2z"/>
			</g>
			<path id="&lt;Path&gt;" class="s9" d="m414.7 440.6h170.3v-55.3h-170.3z"/>
			<path id="&lt;Compound Path&gt;" fill-rule="evenodd" class="s6" d="m432.6 156h134.5c30.5 0 55.6 25 55.6 55.6 0 30.6-25.1 55.6-55.6 55.6h-134.5c-30.6 0-55.6-25-55.6-55.6 0-30.6 25-55.6 55.6-55.6zm0 22.8c-18 0-32.8 14.8-32.8 32.8 0 18 14.8 32.8 32.8 32.8h134.5c18 0 32.8-14.8 32.8-32.8 0-18-14.8-32.8-32.8-32.8z"/>
			<path id="&lt;Path&gt;" class="s1" d="m423.4 134h152.8v110.4c0 42-34.3 76.4-76.4 76.4-42 0-76.4-34.4-76.4-76.4z"/>
			<path id="&lt;Path&gt;" class="s10" d="m449.5 156c8 0 14.6 6.6 14.6 14.6v72.6c0 8.1-6.6 14.7-14.6 14.7-8.1 0-14.6-6.6-14.6-14.7v-72.6c0-8 6.5-14.6 14.6-14.6z"/>
			<g id="&lt;Group&gt;">
				<path id="&lt;Path&gt;" class="s4" d="m925.1 497.1l-1.7 15.8c-1.4 12.1-1.8 24.4-1.2 36.6l1.9 1.3c10.6 6.9 23.4 9.5 35.9 7.4z"/>
				<path id="&lt;Path&gt;" class="s11" d="m977.7 563.3l36.1 15.1c43 18 79.3 48.8 104 88.2l-14.5 13.2-15.7-7c-34.9-15.7-72.2-25.3-110.3-28.3l-3.1-11.4v-1.1c0-23 1.1-45.9 3.5-68.7z"/>
				<path id="&lt;Path&gt;" class="s12" d="m1048.9 728.5l14 51c21.5 78 36.4 158.4 44.7 240l-29.9 12.7-18.4-33.4c-33.1-59.8-62.1-122.9-86.8-188.5l35.8-106.8z"/>
				<path id="&lt;Path&gt;" class="s13" d="m944.1 703.5l-2.6 57.9c-4 91.2 3.6 182.5 22.5 270.8h29.8l9.4-59.6q18.5-117.5 33.7-235.8z"/>
				<path id="&lt;Path&gt;" class="s8" d="m974.4 549.5l20.1 19.8c5.7 5.7 10.3 12.4 13.4 19.8 5.5 12.8 8.4 26.5 8.6 40.3 0.6 37.1 23.7 70.1 58.4 83.3l-15.6 21.7c-15.2 21.2-39.4 34.2-65.5 35.1-26.1 1-51.2-10.1-67.9-30.1l2.8-36.4c1.5-18.9-0.7-37.8-6.4-55.8-6.4-20.1-2.1-41.9 11.4-58.1 12.2-14.5 25.8-27.8 40.7-39.6z"/>
				<path id="&lt;Path&gt;" class="s8" d="m965.5 649.5l-34.8-18c-41.3-21.4-75-55.1-96.4-96.5l15.6-11.9 15 8.3c33.5 18.5 69.9 31.1 107.6 37.2 4.9 25.8-2.2 55.2-7 80.9z"/>
				<g id="&lt;Group&gt;">
					<path id="&lt;Path&gt;" class="s14" d="m980.1 479.9l-6.2-6c-7.6-7.3-19.1-8.5-28.1-3-7 4.3-13.5 9.3-19.5 14.9-8.4 7.8-9.2 20.8-1.9 29.6 4.7 5.6 6.3 13.2 4.4 20.2-6 21.4 5.7 43.7 26.7 50.9 21 7.2 44-3.2 52.4-23.7z"/>
					<path id="&lt;Path&gt;" class="s14" d="m953.6 473.3l11.8-2.4c17.9-3.7 35.7 6.8 41 24.2 3.4 11.2 10.8 20.7 20.7 26.9 15.5 9.6 23.2 28.1 19 46-4.2 17.8-19.4 31-37.6 32.6-18.3 1.7-35.5-8.5-42.9-25.3z"/>
				</g>
				<path id="&lt;Path&gt;" class="s4" d="m849.9 523.1l-18.7-12-7.6 6.3 10.7 17.6z"/>
				<g id="&lt;Group&gt;">
					<path id="&lt;Path&gt;" class="s15" d="m777.9 452.9l42.8-14.4 20.4 60.6-42.8 14.4z"/>
					<path id="&lt;Path&gt;" class="s5" d="m777.9 443.5l42.8-14.5 20.4 60.7-42.8 14.4c-0.7 3.1-0.5 6.2 0 9.4l-20.4-60.6c-0.6-2.5-1.1-6.3 0-9.4z"/>
					<path id="&lt;Path&gt;" class="s16" d="m787.2 452l29.9-10.1 3.1 9.1-29.9 10.1z"/>
					<path id="&lt;Path&gt;" class="s3" d="m837.8 490.8l-0.8 5.9-37.2 12.6-1.5-5.2z"/>
					<path id="&lt;Path&gt;" class="s16" d="m798.3 461.3l15.5-5.2 1.5 4.7-15.4 5.2z"/>
				</g>
				<path id="&lt;Path&gt;" class="s4" d="m818.7 506.6l-8.4 2.9 17.5 13.6 4.7-9.6 0.2-3.4c0.1-2-0.2-3.9-1.1-5.7-1.4-3.1-1.6-6.6-0.7-9.8 0.4-1.1-0.1-2.2-1.2-2.7-1-0.5-2.2-0.1-2.8 0.8-1.6 2.5-2.6 5.4-2.9 8.4-0.2 2.8-2.4 5.1-5.3 5.5z"/>
				<path id="&lt;Path&gt;" class="s4" d="m1103.3 679.8l9.7 4.5 1.3 7.2c0.7 3.8 2.5 7.2 5.2 9.9l3.2 3.7c1.2 1.3 2.9 2 4.7 2 1.8 0 3.5-0.8 4.7-2.1l9.3 0.3c2.2 0.1 4.3-0.8 5.8-2.4 1.5-1.7 2.2-3.9 1.8-6.1l0.6-17c0.1-3.4-2.4-6.4-5.8-6.8l-18.5-0.1-7.5-6.3z"/>
				<path id="&lt;Path&gt;" class="s14" d="m961.3 1019l-4 3.9c-4.8 4.9-10.5 8.7-16.8 11.4-3.2 1.4-5 4.9-4.2 8.3 0.7 3.4 3.8 5.8 7.3 5.7h50.6l-0.6-5.3 0.8-3.8c0.7-3.3 0.7-6.8-0.1-10.1-4.1-5.7-9.6-5.4-14.2-1.2-5.6 1-11.3 1.1-16.9 0.2z"/>
				<path id="&lt;Path&gt;" class="s14" d="m1077.2 1048.3h44.9l-0.2-5c-0.3-9.3-4.4-18.1-11.3-24.3-3.5-3.1-8.3-4-12.6-2.2q-7.9 3.2-15.1 7.6c-4 2.5-6.6 6.6-7.1 11.2-0.4 4.3 0 12.7 1.4 12.7z"/>
			</g>
		</g>
	</g>
</svg>