<svg version="1.2" xmlns="http://www.w3.org/2000/svg" viewBox="0 0 1061 817" width="1061" height="817">
	<title>woman-reading-a-book-ai</title>
	<style>
		.s0 { fill: #fcdddd } 
		.s1 { fill: #cf9999 } 
		.s2 { fill: #453434 } 
		.s3 { fill: #ffffff } 
		.s4 { fill: #e63e3e } 
		.s5 { fill: #b87b7b } 
		.s6 { fill: #ff6666 } 
		.s7 { fill: #d9abab } 
		.s8 { fill: #ebc3c3 } 
		.s9 { fill: #333333 } 
	</style>
	<g id="_Artboards_">
	</g>
	<g id="publicdomainvectors.org">
		<g id="&lt;Group&gt;">
			<path id="&lt;Path&gt;" class="s0" d="m463.6 0.2c255.8 0 463.1 207.3 463.1 463.1 0 141.7-63.7 268.5-164 353.5h-598.3c-100.3-85-163.9-211.8-163.9-353.5 0-255.8 207.3-463.1 463.1-463.1z"/>
			<path id="&lt;Path&gt;" class="s1" d="m219 287h413.2c61.2 0 114.4 42.2 128.3 101.8 20.3 86.5 86.7 154.7 172.7 177.1 51.6 13.5 93.9 50.4 114.2 99.7 20.3 49.3 16.3 105.3-10.9 151.2h-743.4z"/>
			<path id="&lt;Path&gt;" class="s2" d="m514.6 696.9l-4.8-172.3 250.4 19.7c35 2.7 65 26.2 75.9 59.6 11 33.4 0.8 70.1-25.8 93z"/>
			<path id="&lt;Path&gt;" class="s3" d="m520.8 261.5l61.7 46.8 20.3 30.9 34.4 42.8c14.5 18 14.5 43.7 0 61.7 2.8 30.1-10.9 78.6 10.1 94-56.6 25.1-56.6 77.6-44.5 131.9l-192.5-48.7-17.9-254.4c-1.8-24.5 1.6-49 9.9-72.1l47.8-26.9 6-16.9z"/>
			<path id="&lt;Path&gt;" class="s4" d="m693.4 677.9c11.7-35 57.8-89.1 88.4-105.7l91.4 13.4c12.5 1.9 22.3 9 28.1 20.2l17 33.2c1.9 3.7 3.1 7.1 3.7 11.2l27.3 166.6h-101.6c-22.4-40.8-19.6-98.7-18.7-138.9z"/>
			<path id="&lt;Path&gt;" class="s5" d="m667.6 816.8h140.2v-119.9h-140.2z"/>
			<path id="&lt;Path&gt;" class="s6" d="m669.3 677.9l5.6-16.8c12.1-35.9 37.3-65.9 70.5-84l56.2 8.5c12.5 1.9 22.3 9 28.1 20.2l17 33.2c1.9 3.7 3.1 7.1 3.7 11.2l27.3 166.6h-101.6c-22.4-40.8-19.6-98.7-18.7-138.9z"/>
			<path id="&lt;Path&gt;" class="s4" d="m669.3 677.9l5.6-16.8c7.7-22.9 20.8-43.5 37.9-60-10.2 29 1.6 61.2 28.1 76.8z"/>
			<path id="&lt;Path&gt;" class="s7" d="m162.9 287h106.2c61.3 0 114.5 42.2 128.4 101.8 20.2 86.5 86.7 154.7 172.7 177.1 51.6 13.5 93.9 50.4 114.2 99.7 20.3 49.3 16.2 105.3-10.9 151.2h-436.5z"/>
			<path id="&lt;Path&gt;" class="s8" d="m136.9 287h43.7c61.2 0 114.4 42.2 128.4 101.8 20.2 86.5 86.7 154.7 172.6 177.1 51.6 13.5 93.9 50.4 114.2 99.7 20.3 49.3 16.3 105.3-10.9 151.2h-436.4l-65.5-467.9c-2.3-16.1 2.1-30.9 12.8-43.2 10.7-12.3 24.8-18.7 41.1-18.7z"/>
			<path id="&lt;Path&gt;" class="s2" d="m578.8 373.6l162.4 19.9 59.1-53.6-65.3 173-27.3 45.5-137-12.7z"/>
			<path id="&lt;Path&gt;" class="s6" d="m546.3 526.6l6-46.6c0.6-4.4 2.7-8.9 6.7-11 15.5-7.6 37.8-7.6 57.7-4.6 6.8 1.9 6.6 6.8 0.6 10.5l6.9 0.5c8.9 3 7 12.5-2.3 13-1.1 3.2-3.9 9.1-13.6 8.4l-17.9 1.2 15.3 2c2.3 0.3 4.2 2.1 4.5 4.5 0.3 2.4-1 4.6-3.2 5.6-3.2 1.3-6.7 1.7-10.1 1.1-6.8-1.2-18.1 7.9-25 8.4l-0.6 13.1-4 2.7c-3.8 2.5-8.6 3-12.8 1.2-4.3-1.7-8.8-5.7-8.2-10z"/>
			<path id="&lt;Path&gt;" class="s3" d="m794.4 345.1l-7.9 0.1-6.5 3.2c-7.8 3.7-16.3 6-24.9 6.7-11.6 0.9-21.6 8.4-25.8 19.3l-9.2-1.8c-26.7-5.2-54.1-6-81.1-2.3-12.7 1.8-25.7 1.3-38.3-1.3l-10 6.1 150.5 18.4z"/>
			<path id="&lt;Path&gt;" class="s4" d="m757.3 444.1l6.9 1.9c3.4 1 5.8 4.1 5.8 7.7-0.1 3.6-2.5 6.7-6 7.5l1 2.9c0.6 1.8 0.5 3.8-0.4 5.6-0.9 1.7-2.4 3-4.2 3.6l0.1 3.7c0.2 3.6-1.8 6.9-5 8.5-3.1 1.6-7 1.2-9.8-1l-0.9 2.3 2.6 5.4c1.5 2.9 0.3 6.5-2.7 8-3 1.5-6.6 0.3-8.1-2.6-2.1-4-3.1-8.5-2.9-12.9 0.1-2.1 1.1-4 2.8-5.2 1.7-1.2 3.9-1.5 5.8-0.9l0.5-3.5c0.4-2.9 2.4-5.2 5.1-6.1l-0.1-3.5c-0.2-3.1 2.1-5.7 5.2-6l-2.2-2.8c-1.9-2.4-2.2-5.7-0.8-8.4 1.4-2.7 4.4-5 7.3-4.2z"/>
			<g id="&lt;Group&gt;">
				<path id="&lt;Path&gt;" class="s9" d="m501.5 91.4c45.4 0 82.2 36.8 82.2 82.1 0 45.4-36.8 82.2-82.2 82.2-45.4 0-82.2-36.8-82.2-82.2 0-45.3 36.8-82.1 82.2-82.1z"/>
				<path id="&lt;Path&gt;" class="s9" d="m441.3 110.6c21.3 0 38.6 17.3 38.6 38.6 0 21.4-17.3 38.7-38.6 38.7-21.4 0-38.7-17.3-38.7-38.7 0-21.3 17.3-38.6 38.7-38.6z"/>
				<path id="&lt;Path&gt;" class="s6" d="m463.2 263.6q4.3-7.3 7.4-15.3l10.4-26.9 48.5 11.2c-11 12-18.3 26.9-21.2 42.8l-8.3 11.6z"/>
				<path id="&lt;Path&gt;" class="s4" d="m513.3 228.9l16.2 3.7c-11 12-18.3 26.9-21.2 42.8l-8.3 11.6-10.6-6.7c-1.6-4.4-2.6-9.1-2.6-14 0-17.1 11-31.6 26.5-37.4z"/>
				<path id="&lt;Path&gt;" class="s6" d="m530.7 126.6c45.9 0 45.9 37.4 45.9 85.4 0 48-29.7 66.5-45.9 66.5-16.2 0-67.9-18.5-67.9-66.5 0-48 21.9-85.4 67.9-85.4z"/>
				<path id="&lt;Path&gt;" class="s3" d="m552.1 236.4c-4.5 12.4-13.9 17.3-18.6 17.3-4.8 0-17.8-4.9-17.9-17.3z"/>
				<path id="&lt;Path&gt;" class="s6" d="m460.9 180.1c6.8-2.6 14.9 4 18.2 14.6 3.2 10.6 0.4 21.3-6.3 23.9-6.8 2.5-14.9-4.1-18.2-14.7-3.2-10.6-0.4-21.3 6.3-23.8z"/>
				<path id="&lt;Path&gt;" class="s9" d="m526 176v-9l-3.2 0.4c-9.2 1.2-18.1 4-26.3 8.3l2.3 5.1c7.2-2.2 14.6-3.6 22.1-4.3z"/>
				<path id="&lt;Path&gt;" class="s9" d="m516.4 183.9c4.4 0 7.9 4.5 7.9 10.1 0 5.7-3.5 10.2-7.9 10.2-4.4 0-7.9-4.5-7.9-10.2 0-5.6 3.5-10.1 7.9-10.1z"/>
				<path id="&lt;Path&gt;" class="s9" d="m548.2 176v-9l2.5 0.4c7.2 1.2 14.1 4 20.5 8.3l-1.8 5.1c-5.6-2.2-11.4-3.6-17.2-4.3z"/>
				<path id="&lt;Path&gt;" class="s9" d="m555.7 183.9c-3.5 0-6.2 4.5-6.2 10.1 0 5.7 2.7 10.2 6.2 10.2 3.4 0 6.2-4.5 6.2-10.2 0-5.6-2.8-10.1-6.2-10.1z"/>
			</g>
			<path id="&lt;Path&gt;" class="s6" d="m503.3 189.2h62v-7.8h-62z"/>
			<path id="&lt;Path&gt;" class="s4" d="m545.3 225.4c3.7 0 4.3-4 4.3-2.6 0 1.5-3.7 7.7-7.4 7.7-3.7 0-5.9-6.2-5.9-7.7 0-1.4 5.3 2.6 9 2.6z"/>
		</g>
	</g>
</svg>