<svg width="50" height="51" viewBox="0 0 50 51" fill="none" xmlns="http://www.w3.org/2000/svg">
<g id="pajamas:hamburger" clip-path="url(#clip0_790_5158)">
<path id="Vector" fill-rule="evenodd" clip-rule="evenodd" d="M0 12.2188C0 11.5971 0.24693 11.001 0.686468 10.5615C1.12601 10.1219 1.72215 9.875 2.34375 9.875H47.6562C48.2779 9.875 48.874 10.1219 49.3135 10.5615C49.7531 11.001 50 11.5971 50 12.2188C50 12.8404 49.7531 13.4365 49.3135 13.876C48.874 14.3156 48.2779 14.5625 47.6562 14.5625H2.34375C1.72215 14.5625 1.12601 14.3156 0.686468 13.876C0.24693 13.4365 0 12.8404 0 12.2188ZM0 25.5C0 24.8784 0.24693 24.2823 0.686468 23.8427C1.12601 23.4032 1.72215 23.1563 2.34375 23.1562H47.6562C48.2779 23.1563 48.874 23.4032 49.3135 23.8427C49.7531 24.2823 50 24.8784 50 25.5C50 26.1216 49.7531 26.7177 49.3135 27.1573C48.874 27.5968 48.2779 27.8438 47.6562 27.8438H2.34375C1.72215 27.8438 1.12601 27.5968 0.686468 27.1573C0.24693 26.7177 0 26.1216 0 25.5ZM2.34375 36.4375C1.72215 36.4375 1.12601 36.6844 0.686468 37.124C0.24693 37.5635 0 38.1596 0 38.7812C0 39.4029 0.24693 39.999 0.686468 40.4385C1.12601 40.8781 1.72215 41.125 2.34375 41.125H47.6562C48.2779 41.125 48.874 40.8781 49.3135 40.4385C49.7531 39.999 50 39.4029 50 38.7812C50 38.1596 49.7531 37.5635 49.3135 37.124C48.874 36.6844 48.2779 36.4375 47.6562 36.4375H2.34375Z" fill="#202020"/>
</g>
<defs>
<clipPath id="clip0_790_5158">
<rect width="50" height="50" fill="white" transform="translate(0 0.5)"/>
</clipPath>
</defs>
</svg>
