<svg version="1.2" xmlns="http://www.w3.org/2000/svg" viewBox="0 0 1085 786" width="1085" height="786">
	<title>man-reading-an-ebook-ai</title>
	<style>
		.s0 { fill: #e0fcd2 } 
		.s1 { fill: #b2e698 } 
		.s2 { fill: #1a1a1a } 
		.s3 { fill: #eb4444 } 
		.s4 { fill: #663333 } 
		.s5 { fill: #ff6666 } 
		.s6 { fill: #333333 } 
		.s7 { fill: #ffffff } 
		.s8 { fill: #471d1d } 
		.s9 { fill: #8c5050 } 
		.s10 { fill: #de0059 } 
		.s11 { fill: #b8004a } 
		.s12 { fill: #e0ebda } 
		.s13 { fill: #07a1d9 } 
	</style>
	<g id="_Artboards_">
	</g>
	<g id="publicdomainvectors.org">
		<g id="&lt;Group&gt;">
			<path id="&lt;Path&gt;" class="s0" d="m501.1 0.6c265 0 479.7 214.8 479.7 479.7 0 115.7-40.9 221.9-109.1 304.7h-741.1c-68.3-82.8-109.2-189-109.2-304.7 0-264.9 214.7-479.7 479.7-479.7z"/>
			<path id="&lt;Compound Path&gt;" fill-rule="evenodd" class="s1" d="m980.8 477.3c0 1 0 2 0 3 0 115.7-40.9 221.9-109.1 304.7h-741.1c-65.8-79.9-106.3-181.4-109.1-292.2 20-60.6 52.4-100 89-100 25.3 0 48.6 18.8 67.2 50.5 29.3-49.7 69.7-80.4 114.3-80.4 48.9 0 92.7 36.9 122.5 95.4 20.3-38.6 45.9-61.7 73.9-61.7 20.9 0 40.6 13 57.7 35.8 28.6-58.1 68.5-94.2 112.6-94.2 57 0 106.9 60.1 134.6 150.1 24.4-45.2 58.8-73.3 96.9-73.3 34.9 0 66.8 23.6 90.6 62.3zm-553.3-107.2c0 17.6-8.9 31.9-19.8 31.9-11 0-19.9-14.3-19.9-31.9 0-17.6 8.9-31.9 19.9-31.9 10.9 0 19.8 14.3 19.8 31.9zm406.2-4.1c0 19.9-10.7 36-23.8 36-13.2 0-23.8-16.1-23.8-36 0-20 10.6-36.1 23.8-36.1 13.1 0 23.8 16.1 23.8 36.1z"/>
			<path id="&lt;Path&gt;" class="s2" d="m965.4 655.1l70.6-37.5c53.1-28.3 49.9 27.6 47.4 41.5-5.8 32.6-26.2 45-54.1 67.6-20.6 16.8-6.5 39.5-40.7 58.3h-111.4z"/>
			<path id="&lt;Path&gt;" class="s3" d="m346.2 529.4l72.8-19.9 44.4 4.6 7 46-92.4 35.7z"/>
			<path id="&lt;Path&gt;" class="s4" d="m359.3 601.4l228.9-163.3c15.3-11 34.2-15.6 53.5-13.3 25.6 3.1 49.6 18.4 65.5 41.6 8.2 11.9 13.5 25.8 15.3 39.9 9.4 73.6 4.7 146.9-13.9 215.4l-320.1-46.8z"/>
			<path id="&lt;Path&gt;" class="s5" d="m372.6 159.4c-1.8 33.9-26 52.4-18.7 71 7.2 18.6-36.4 76-51.6 78.4-8.4 1.4-34.3-21.4-48.6-33.7l-25.6 33.8-55.9-49.6 24.2-26.9 25-150.1z"/>
			<path id="&lt;Path&gt;" class="s6" d="m372.6 159.4l10.5-18.4c7.8-13.6 7.7-30.2-0.1-43.8-7.8-13.5-22.2-21.8-37.9-21.8l-104.1-29.5c-12.7-3.6-26.1 3-31 15.3l-3.5 1.8c-10.9 5.5-18.3 16.1-19.7 28.2-5.3 47.3-2.1 95.1 9.6 141.2l23.1-16.5c14.2-10.1 27-22 38.1-35.4l30.8 13.5 4-31c2-15.2 17.5-22 32.2-17.7z"/>
			<path id="&lt;Path&gt;" class="s5" d="m255.1 146.7c-10.5-1.3-21 13.8-23.4 33.8-2.5 19.9 4.1 37.1 14.6 38.4 10.6 1.3 21.1-13.9 23.5-33.8 2.4-19.9-4.1-37.1-14.7-38.4z"/>
			<path id="&lt;Path&gt;" class="s6" d="m351 176.2l-5.6 11.7-7.5-2.9c-6.6-2.5-13.7-3.7-20.7-3.3l-0.5-6.9c8.6-1.9 17.5-2 26.1-0.2z"/>
			<path id="&lt;Path&gt;" class="s6" d="m327.8 188.2c-4.9-1.9-10.8 1.9-13.3 8.5-2.5 6.5-0.6 13.3 4.2 15.1 4.8 1.9 10.8-1.9 13.3-8.5 2.5-6.5 0.6-13.3-4.2-15.1z"/>
			<path id="&lt;Path&gt;" class="s7" d="m306.6 267.2q-0.4 0.5-0.8 1c-3.4 5.1-1.5 10.9 4.3 13 5.4 2 12.5-0.1 16.1-4.7z"/>
			<path id="&lt;Path&gt;" class="s8" d="m498.2 685.9l14.3-5.3c110.4-40.7 93.4-144.2 151.9-170.8-46.9 32.8-56.5 120.2-26.4 189.5z"/>
			<path id="&lt;Path&gt;" class="s9" d="m366.4 573l37.9 20.3 271.3 41.5 29.2 19.5 190.6 18.6 70-17.8c16.8 38.7 11.8 99.5-28.4 129.9h-186.1l-108.6-20.7-244.1 20.7c-91.9 0-166.9-73.4-168.8-165.2z"/>
			<path id="&lt;Path&gt;" class="s10" d="m156.1 246.6c-28.8 75-35.3 156.7-18.7 235.3 19.8 94.1 61.6 182.2 121.9 257.1l28.9-4.6c40-6.4 74.6-31.3 93.4-67.1 18.9-35.8 19.8-78.4 2.4-115l-29.9-69.4c-7.9-99.7-49.5-182.6-198-236.3z"/>
			<path id="&lt;Path&gt;" class="s11" d="m156.6 552.2c12 35.1 27 69.1 45.1 101.4 3.9-75.9 11-137.2 31.3-230z"/>
			<path id="&lt;Path&gt;" class="s5" d="m137.5 350.7l-17 163c-47.9 70-58.2 180.2-45.7 271.3h69.8c36.2-75.7 41.4-137.7 48.3-241.7l49.7-138.7c-21.2-47.2-74.9-57.7-105.1-53.9z"/>
			<path id="&lt;Path&gt;" class="s5" d="m135.1 747.6l22 8.7c7.3 2.8 15.3 3.8 23 2.8 3.7-0.5 7.3 1 9.5 4 2.2 2.9 2.6 6.8 1.1 10.1-2.2 5.2-6.3 9.4-11.4 11.8h-167.9c-9.7 0-18.1-20.5-1.1-23.3 25.8-4.2 49.5-16.9 67.6-35.8z"/>
			<path id="&lt;Path&gt;" class="s7" d="m680.4 201.5c47.4 0 86.1-38.7 86.1-86.1 0-47.5-38.7-86.2-86.1-86.2-47.5 0-86.2 38.7-86.2 86.2 0 47.4 38.7 86.1 86.2 86.1z"/>
			<path id="&lt;Path&gt;" class="s12" d="m530.8 441.5c16.8 1 34.8 2 54.2 3.1l59.3 3.5 11-7.3 2.5 10.2c0.7 1.8-1.2 4.6-5.7 7.6q-26.7 17.8-55 36.8-29.4 19.6-60.7 40.6c-9.4 6.3-22.4 10-28.5 8.3-20.9-5.9-40-11.3-57.5-16.3-16.1-4.6-31-8.8-44.8-12.7q-1.2-0.3-1.4-1.2l-2.6-10.3 12.8-4.7 3.8 3.1 45.6-26.7q24-14.1 47-27.5c6.6-3.9 15.5-6.8 20-6.5z"/>
			<path id="&lt;Path&gt;" class="s7" d="m528.2 431.2c16.8 1 34.8 2 54.2 3.2 20.8 1.2 43.3 2.5 67.8 3.9 7.1 0.5 6.9 4.9-0.7 10q-26.7 17.9-55 36.8-29.4 19.6-60.7 40.6c-9.4 6.3-22.4 10-28.5 8.3-20.9-5.9-40-11.3-57.5-16.3-16.1-4.6-31-8.8-44.8-12.7-3.7-1-0.2-5.6 7.5-10.1q26-15.2 50.7-29.6 24-14.1 47-27.6c6.6-3.8 15.5-6.8 20-6.5z"/>
			<path id="&lt;Path&gt;" class="s13" d="m516.1 438.3c16.6 1.2 34.3 2.6 53.4 4 20.6 1.6 42.9 3.2 67 5.1q-26.3 17.4-54.4 35.9-29 19.1-59.9 39.5c-21.4-5.3-40.9-10.2-58.9-14.7-16.5-4.1-31.8-8-46-11.5q26.3-15.5 51.3-30.2 24.3-14.4 47.5-28.1z"/>
			<path id="&lt;Path&gt;" class="s3" d="m432 482.3l3.9-9.8c2.4-5.9 7.4-10.3 13.5-11.7 10.5-2.6 21.3-3.5 32-2.7 1.4 0.1 2.6 0.8 3.3 2 0.8 1.1 0.9 2.5 0.5 3.7-7.9 22.6-28.1 16.6-45.3 13.9z"/>
		</g>
	</g>
</svg>