<svg width="28" height="28" viewBox="0 0 28 28" fill="none" xmlns="http://www.w3.org/2000/svg">
<g id="fluent:animal-cat-28-regular">
<path id="Vector" d="M8.52287 26H20.3749C21.0574 25.9997 21.7118 25.7284 22.1943 25.2457C22.6768 24.763 22.9479 24.1085 22.9479 23.426V12.01C25.3609 11.914 26.8079 9.235 25.5179 7.153L24.7639 5.937C24.4788 5.4766 24.0809 5.09663 23.6079 4.83307C23.1349 4.56952 22.6024 4.43112 22.0609 4.431H19.9089V3.48C19.9089 3.08765 19.7531 2.71136 19.4757 2.43384C19.1984 2.15631 18.8222 2.00027 18.4299 2C17.9482 2.00013 17.4712 2.09514 17.0263 2.27959C16.5813 2.46405 16.177 2.73434 15.8365 3.07504C15.496 3.41574 15.2259 3.82017 15.0417 4.26524C14.8575 4.71031 14.7627 5.18731 14.7629 5.669V10.854C12.8459 11.041 11.3989 11.949 10.3359 13.225C9.16187 14.635 8.47087 16.473 8.05887 18.238C7.64587 20.013 7.49887 21.776 7.45587 23.088C7.43991 23.5585 7.43557 24.0293 7.44287 24.5H6.45487C5.87878 24.4997 5.31532 24.3312 4.8337 24.0151C4.35208 23.699 3.97329 23.2491 3.74386 22.7206C3.51443 22.1922 3.44435 21.6083 3.54224 21.0406C3.64013 20.4728 3.90172 19.9461 4.29487 19.525L5.67487 18.045C6.62625 17.0248 7.14442 15.675 7.12017 14.2802C7.09592 12.8855 6.53115 11.5546 5.54487 10.568L4.19187 9.213C4.12321 9.13931 4.04041 9.08021 3.94841 9.03922C3.85641 8.99823 3.7571 8.97618 3.65639 8.97441C3.55569 8.97263 3.45566 8.99116 3.36227 9.02888C3.26889 9.0666 3.18405 9.12274 3.11283 9.19396C3.04161 9.26518 2.98547 9.35001 2.94775 9.4434C2.91003 9.53679 2.8915 9.63682 2.89328 9.73752C2.89506 9.83822 2.9171 9.93754 2.95809 10.0295C2.99908 10.1215 3.05819 10.2043 3.13187 10.273L4.48687 11.629C5.19846 12.3403 5.60591 13.3002 5.62326 14.3062C5.64061 15.3122 5.2665 16.2856 4.57987 17.021L3.19987 18.501C2.6082 19.1359 2.21466 19.9296 2.0675 20.7849C1.92035 21.6402 2.02597 22.5198 2.37143 23.316C2.71689 24.1121 3.28717 24.7901 4.01233 25.2669C4.73749 25.7436 5.58602 25.9984 6.45387 26H8.52287ZM18.4099 3.5V5.182C18.4099 5.597 18.7449 5.932 19.1599 5.932H22.0599C22.6429 5.932 23.1829 6.233 23.4899 6.728L24.2429 7.945C24.9379 9.065 24.1329 10.514 22.8139 10.514H22.1979C21.999 10.514 21.8082 10.593 21.6675 10.7337C21.5269 10.8743 21.4479 11.0651 21.4479 11.264V23.426C21.4479 24.019 20.9679 24.5 20.3749 24.5H19.3009V23.426C19.3011 22.8485 19.1876 22.2766 18.9668 21.743C18.7461 21.2093 18.4223 20.7244 18.0141 20.3159C17.6059 19.9074 17.1212 19.5833 16.5877 19.3622C16.0542 19.141 15.4824 19.0271 14.9049 19.027H13.3849C13.186 19.027 12.9952 19.106 12.8545 19.2467C12.7139 19.3873 12.6349 19.5781 12.6349 19.777C12.6349 19.9759 12.7139 20.1667 12.8545 20.3073C12.9952 20.448 13.186 20.527 13.3849 20.527H14.9049C16.5049 20.527 17.8019 21.825 17.8019 23.426V24.5H8.94187C8.93441 24.0456 8.93841 23.5912 8.95387 23.137C8.99587 21.883 9.13487 20.225 9.51887 18.579C9.90487 16.924 10.5249 15.341 11.4879 14.186C12.4279 13.057 13.7049 12.318 15.5129 12.318C15.6114 12.318 15.7089 12.2986 15.7999 12.2609C15.8909 12.2232 15.9736 12.168 16.0432 12.0983C16.1128 12.0287 16.1681 11.946 16.2058 11.855C16.2435 11.764 16.2629 11.6665 16.2629 11.568V5.668C16.2629 4.478 17.2219 3.511 18.4099 3.5Z" fill="black"/>
</g>
</svg>
