<svg width="20" height="20" viewBox="0 0 20 20" fill="none" xmlns="http://www.w3.org/2000/svg">
<g id="fluent:animal-dog-20-regular">
<path id="Vector" d="M10.7698 2.394C11.1858 2.094 11.6698 2 11.9998 2H13.4458C13.8989 1.99996 14.3434 2.12301 14.7318 2.356L16.5148 3.426C16.6628 3.51487 16.7852 3.64049 16.8701 3.79066C16.9551 3.94084 16.9998 4.11045 16.9998 4.283V5.5C16.9998 5.89782 16.8418 6.27936 16.5605 6.56066C16.2792 6.84196 15.8977 7 15.4998 7H14.9998V15.038C15.4208 15.103 15.8428 15.26 16.1948 15.553C16.7048 15.977 16.9998 16.63 16.9998 17.5C16.9998 17.6326 16.9472 17.7598 16.8534 17.8536C16.7596 17.9473 16.6325 18 16.4998 18H4.99985C4.37046 18.0001 3.75698 17.8022 3.24626 17.4344C2.73554 17.0665 2.35344 16.5474 2.15404 15.9504C1.95465 15.3535 1.94806 14.7089 2.1352 14.108C2.32235 13.507 2.69375 12.9802 3.19685 12.602C3.30299 12.5254 3.43493 12.4935 3.56433 12.5131C3.69373 12.5328 3.81028 12.6023 3.88896 12.7069C3.96763 12.8115 4.00216 12.9428 3.98512 13.0726C3.96809 13.2023 3.90085 13.3203 3.79785 13.401C3.46231 13.6531 3.21458 14.0043 3.08973 14.405C2.96488 14.8057 2.96924 15.2355 3.10218 15.6336C3.23513 16.0316 3.48993 16.3778 3.8305 16.623C4.17108 16.8683 4.58017 17.0001 4.99985 17C5.28785 17 5.46985 16.93 5.58985 16.85C5.70849 16.7681 5.80337 16.6564 5.86485 16.526C5.94517 16.3617 5.99111 16.1827 5.99985 16V15.955L6.00385 15.845C6.03701 15.2662 6.12405 14.6917 6.26385 14.129C6.52685 13.079 7.05985 11.733 8.14585 10.646C9.98985 8.803 9.99985 6.331 9.99985 5.5V4C9.99985 3.237 10.3298 2.712 10.7698 2.394ZM10.9238 6.9C10.7688 8.156 10.2948 9.912 8.85385 11.354C7.93985 12.267 7.47285 13.421 7.23485 14.371C7.11086 14.8691 7.03319 15.3776 7.00285 15.89C7.00151 15.919 7.00051 15.948 6.99985 15.977V16.033L6.99585 16.1C6.97374 16.4137 6.88872 16.7198 6.74585 17H12.9188C12.8188 16.68 12.6158 16.351 12.2668 16.168C12.0288 16.05 11.7654 15.9923 11.4998 16H10.4998C10.3672 16 10.2401 15.9473 10.1463 15.8536C10.0525 15.7598 9.99985 15.6326 9.99985 15.5C9.99985 15.3674 10.0525 15.2402 10.1463 15.1464C10.2401 15.0527 10.3672 15 10.4998 15H11.4998C11.6758 15 11.8418 15.014 11.9998 15.04V12.5C11.9998 12.3674 12.0525 12.2402 12.1463 12.1464C12.2401 12.0527 12.3672 12 12.4998 12C12.6325 12 12.7596 12.0527 12.8534 12.1464C12.9472 12.2402 12.9998 12.3674 12.9998 12.5V15.448C13.5798 15.866 13.8468 16.488 13.9478 17H15.9478C15.8728 16.672 15.7228 16.461 15.5548 16.322C15.2978 16.107 14.9248 16 14.4998 16C14.3672 16 14.2401 15.9473 14.1463 15.8536C14.0525 15.7598 13.9998 15.6326 13.9998 15.5V6.5C13.9998 6.36739 14.0525 6.24021 14.1463 6.14645C14.2401 6.05268 14.3672 6 14.4998 6H15.4998C15.6325 6 15.7596 5.94732 15.8534 5.85355C15.9472 5.75979 15.9998 5.63261 15.9998 5.5V4.283L14.2178 3.213C13.9846 3.07335 13.7177 2.99972 13.4458 3H11.9998C11.8298 3 11.5638 3.055 11.3548 3.206C11.1698 3.338 10.9998 3.563 10.9998 4V5.5C10.9998 5.587 11.0298 5.728 11.1058 5.833C11.1628 5.913 11.2628 6 11.4998 6C11.7368 6 11.8368 5.912 11.8938 5.833C11.9604 5.73449 11.9972 5.61888 11.9998 5.5C11.9998 5.36739 12.0525 5.24021 12.1463 5.14645C12.2401 5.05268 12.3672 5 12.4998 5C12.6325 5 12.7596 5.05268 12.8534 5.14645C12.9472 5.24021 12.9998 5.36739 12.9998 5.5C12.9998 5.747 12.9298 6.106 12.7058 6.417C12.4628 6.754 12.0628 7 11.4998 7C11.3034 7.00187 11.1082 6.96799 10.9238 6.9Z" fill="black"/>
</g>
</svg>
