<svg width="24" height="24" viewBox="0 0 24 24" fill="none" xmlns="http://www.w3.org/2000/svg">
<g id="fluent:animal-turtle-24-regular">
<path id="Vector" d="M10.9971 5.99805C12.2727 5.99811 13.5166 6.39544 14.556 7.13485C15.5954 7.87427 16.3787 8.91904 16.7971 10.124L16.8721 10.357L16.9161 10.501H19.2461C19.9463 10.501 20.6201 10.7682 21.13 11.248C21.64 11.7278 21.9476 12.3842 21.9901 13.083L21.9951 13.25V14.25C21.9949 14.6891 21.8296 15.1119 21.5321 15.4348C21.2346 15.7577 20.8266 15.9569 20.3891 15.993L20.2461 15.998H18.6201L18.8611 16.582C19.0277 16.9867 19.0367 17.4391 18.8862 17.8501C18.7357 18.261 18.4367 18.6007 18.0481 18.802L17.9111 18.866C17.7528 18.9315 17.5856 18.9732 17.4151 18.99L17.2441 18.998H15.4571C15.1516 18.9979 14.8515 18.9178 14.5866 18.7657C14.3217 18.6136 14.1012 18.3948 13.9471 18.131L13.8751 17.994L13.3361 16.851L13.3901 16.844C11.9901 17.03 10.5731 17.052 9.16912 16.91L8.67212 16.853L8.13712 17.989C7.99577 18.2895 7.77188 18.5435 7.49158 18.7215C7.21128 18.8994 6.88614 18.994 6.55412 18.994H4.75012C4.46273 18.9942 4.17974 18.9235 3.92618 18.7882C3.67261 18.653 3.45628 18.4573 3.29632 18.2185C3.13636 17.9798 3.0377 17.7053 3.00906 17.4193C2.98042 17.1334 3.02268 16.8448 3.13212 16.579L3.56512 15.529C3.0858 15.2405 2.6893 14.8329 2.41419 14.3457C2.13907 13.8586 1.9947 13.3085 1.99512 12.749C1.99537 12.568 2.06111 12.3931 2.18021 12.2567C2.29932 12.1204 2.46373 12.0317 2.64312 12.007L2.74512 12H4.62512L5.12212 10.357C5.5038 9.09612 6.28112 7.99149 7.33913 7.20649C8.39715 6.42148 9.67969 5.99779 10.9971 5.99805ZM17.7741 15.691C17.0031 16.001 16.2151 16.256 15.4181 16.456L14.8691 16.585L15.2311 17.355C15.2553 17.4069 15.2966 17.449 15.3481 17.474L15.4011 17.492L15.4571 17.499H17.2441C17.2795 17.499 17.3144 17.4915 17.3466 17.477C17.3789 17.4625 17.4076 17.4413 17.4311 17.4148C17.4545 17.3883 17.4721 17.3572 17.4826 17.3235C17.4931 17.2897 17.4964 17.2541 17.4921 17.219L17.4751 17.154L16.9971 15.998H16.9541L17.3651 15.85L17.7741 15.691ZM4.22212 15.691L4.61212 15.843L5.00012 15.984L4.51812 17.15C4.50249 17.1881 4.49649 17.2294 4.50064 17.2703C4.50479 17.3112 4.51897 17.3504 4.54191 17.3846C4.56485 17.4187 4.59586 17.4466 4.63217 17.4659C4.66849 17.4852 4.709 17.4952 4.75012 17.495H6.55412L6.61112 17.488C6.64797 17.4796 6.68242 17.4628 6.71186 17.4391C6.74131 17.4154 6.76499 17.3853 6.78112 17.351L7.14012 16.588L7.18412 16.598C6.17279 16.3809 5.18186 16.0778 4.22212 15.692V15.691ZM10.9971 7.49705C10.0389 7.49704 9.10421 7.79382 8.32152 8.3466C7.53883 8.89937 6.94656 9.681 6.62612 10.584L6.55812 10.791L5.42212 14.541L5.58512 14.6C8.95499 15.7568 12.6068 15.8034 16.0051 14.733L16.4111 14.6L16.5731 14.541L15.4371 10.791C15.1697 9.90943 14.646 9.12736 13.9326 8.54448C13.2191 7.96159 12.3483 7.60427 11.4311 7.51805L11.2151 7.50205L10.9971 7.49705ZM4.02012 13.997L4.17112 13.497L3.66412 13.499L3.68912 13.551C3.77512 13.717 3.88812 13.867 4.02012 13.997ZM17.3701 12L18.1261 14.498L20.2461 14.499C20.3023 14.499 20.3568 14.48 20.4009 14.4452C20.445 14.4104 20.4761 14.3617 20.4891 14.307L20.4961 14.249V13.25C20.496 12.9408 20.3812 12.6425 20.174 12.4129C19.9668 12.1833 19.6818 12.0387 19.3741 12.007L19.2461 12.001H17.3701V12Z" fill="black"/>
</g>
</svg>
