<svg width="91" height="90" viewBox="0 0 91 90" fill="none" xmlns="http://www.w3.org/2000/svg">
<g clip-path="url(#clip0_1251_6757)">
<path d="M45.5 90C70.3528 90 90.5 69.8528 90.5 45C90.5 20.1472 70.3528 0 45.5 0C20.6472 0 0.5 20.1472 0.5 45C0.5 69.8528 20.6472 90 45.5 90Z" fill="#FF8D4D"/>
<path d="M64.2119 68.4475C64.0994 68 61.2919 57.5 45.4994 57.5C29.7044 57.5 26.8994 68 26.7869 68.4475C26.7213 68.7114 26.7436 68.9895 26.8505 69.2395C26.9575 69.4896 27.1432 69.6978 27.3794 69.8325C27.6167 69.9667 27.8911 70.0204 28.1615 69.9857C28.4318 69.951 28.6837 69.8297 28.8794 69.64C28.9269 69.5925 33.7644 65 45.4994 65C57.2344 65 62.0744 69.5925 62.1194 69.6375C62.313 69.8288 62.5635 69.9519 62.8331 69.9885C63.1028 70.025 63.377 69.9729 63.6144 69.84C63.8528 69.7053 64.0403 69.4962 64.1482 69.2446C64.2562 68.993 64.2786 68.713 64.2119 68.4475Z" fill="black"/>
<path d="M30.5 42.5C33.9518 42.5 36.75 38.5825 36.75 33.75C36.75 28.9175 33.9518 25 30.5 25C27.0482 25 24.25 28.9175 24.25 33.75C24.25 38.5825 27.0482 42.5 30.5 42.5Z" fill="black"/>
<path d="M60.5 42.5C63.9518 42.5 66.75 38.5825 66.75 33.75C66.75 28.9175 63.9518 25 60.5 25C57.0482 25 54.25 28.9175 54.25 33.75C54.25 38.5825 57.0482 42.5 60.5 42.5Z" fill="black"/>
</g>
<defs>
<clipPath id="clip0_1251_6757">
<rect width="90" height="90" fill="white" transform="translate(0.5)"/>
</clipPath>
</defs>
</svg>
