<svg width="91" height="90" viewBox="0 0 91 90" fill="none" xmlns="http://www.w3.org/2000/svg">
<g clip-path="url(#clip0_1251_6772)">
<path d="M45.5 90C70.3528 90 90.5 69.8528 90.5 45C90.5 20.1472 70.3528 0 45.5 0C20.6472 0 0.5 20.1472 0.5 45C0.5 69.8528 20.6472 90 45.5 90Z" fill="#67D533"/>
<path d="M45.5 52.4996C36.4425 52.4996 30.4325 51.4446 23 49.9996C21.3025 49.6721 18 49.9996 18 54.9996C18 64.9996 29.4875 77.4996 45.5 77.4996C61.51 77.4996 73 64.9996 73 54.9996C73 49.9996 69.6975 49.6696 68 49.9996C60.5675 51.4446 54.5575 52.4996 45.5 52.4996Z" fill="black"/>
<path d="M23 55C23 55 30.5 57.5 45.5 57.5C60.5 57.5 68 55 68 55C68 55 63 65 45.5 65C28 65 23 55 23 55Z" fill="white"/>
<path d="M30.5 42.5C33.9518 42.5 36.75 38.5825 36.75 33.75C36.75 28.9175 33.9518 25 30.5 25C27.0482 25 24.25 28.9175 24.25 33.75C24.25 38.5825 27.0482 42.5 30.5 42.5Z" fill="black"/>
<path d="M60.5 42.5C63.9518 42.5 66.75 38.5825 66.75 33.75C66.75 28.9175 63.9518 25 60.5 25C57.0482 25 54.25 28.9175 54.25 33.75C54.25 38.5825 57.0482 42.5 60.5 42.5Z" fill="black"/>
</g>
<defs>
<clipPath id="clip0_1251_6772">
<rect width="90" height="90" fill="white" transform="translate(0.5)"/>
</clipPath>
</defs>
</svg>
