<svg width="91" height="90" viewBox="0 0 91 90" fill="none" xmlns="http://www.w3.org/2000/svg">
<g clip-path="url(#clip0_1251_6767)">
<path d="M45.5 90C70.3528 90 90.5 69.8528 90.5 45C90.5 20.1472 70.3528 0 45.5 0C20.6472 0 0.5 20.1472 0.5 45C0.5 69.8528 20.6472 90 45.5 90Z" fill="#CDFF3F"/>
<path d="M26.7876 59.0523C26.9001 59.4998 29.7076 69.9998 45.5001 69.9998C61.2951 69.9998 64.1001 59.4998 64.2126 59.0523C64.2783 58.7884 64.2559 58.5103 64.149 58.2603C64.042 58.0103 63.8563 57.802 63.6201 57.6673C63.3828 57.5332 63.1085 57.4794 62.8381 57.5141C62.5677 57.5488 62.3158 57.6701 62.1201 57.8598C62.0726 57.9073 57.2351 62.4998 45.5001 62.4998C33.7651 62.4998 28.9251 57.9073 28.8801 57.8623C28.6865 57.6711 28.4361 57.5479 28.1664 57.5114C27.8968 57.4748 27.6225 57.5269 27.3851 57.6598C27.1468 57.7945 26.9592 58.0037 26.8513 58.2552C26.7433 58.5068 26.721 58.7868 26.7876 59.0523Z" fill="black"/>
<path d="M30.5 42.5C33.9518 42.5 36.75 38.5825 36.75 33.75C36.75 28.9175 33.9518 25 30.5 25C27.0482 25 24.25 28.9175 24.25 33.75C24.25 38.5825 27.0482 42.5 30.5 42.5Z" fill="black"/>
<path d="M60.5 42.5C63.9518 42.5 66.75 38.5825 66.75 33.75C66.75 28.9175 63.9518 25 60.5 25C57.0482 25 54.25 28.9175 54.25 33.75C54.25 38.5825 57.0482 42.5 60.5 42.5Z" fill="black"/>
</g>
<defs>
<clipPath id="clip0_1251_6767">
<rect width="90" height="90" fill="white" transform="translate(0.5)"/>
</clipPath>
</defs>
</svg>
