<svg width="91" height="90" viewBox="0 0 91 90" fill="none" xmlns="http://www.w3.org/2000/svg">
<g clip-path="url(#clip0_1251_6762)">
<path d="M90.5 45C90.5 69.8525 70.3525 90 45.5 90C20.65 90 0.5 69.8525 0.5 45C0.5 20.15 20.65 0 45.5 0C70.3525 0 90.5 20.15 90.5 45Z" fill="#FFCC4D"/>
<path d="M29.25 50C32.7018 50 35.5 46.0825 35.5 41.25C35.5 36.4175 32.7018 32.5 29.25 32.5C25.7982 32.5 23 36.4175 23 41.25C23 46.0825 25.7982 50 29.25 50Z" fill="black"/>
<path d="M61.75 50C65.2018 50 68 46.0825 68 41.25C68 36.4175 65.2018 32.5 61.75 32.5C58.2982 32.5 55.5 36.4175 55.5 41.25C55.5 46.0825 58.2982 50 61.75 50Z" fill="black"/>
<path d="M30.5 69.9997C35.5 57.4997 63 57.4997 63 62.4997C63 64.9997 43 59.9997 30.5 69.9997Z" fill="black"/>
</g>
<defs>
<clipPath id="clip0_1251_6762">
<rect width="90" height="90" fill="white" transform="translate(0.5)"/>
</clipPath>
</defs>
</svg>
