<svg width="91" height="90" viewBox="0 0 91 90" fill="none" xmlns="http://www.w3.org/2000/svg">
<g clip-path="url(#clip0_1251_6752)">
<path d="M90.5 45C90.5 69.8525 70.3525 90 45.5 90C20.65 90 0.5 69.8525 0.5 45C0.5 20.15 20.65 0 45.5 0C70.3525 0 90.5 20.15 90.5 45Z" fill="#5F9FFF"/>
<path d="M29.25 50C32.7018 50 35.5 46.0825 35.5 41.25C35.5 36.4175 32.7018 32.5 29.25 32.5C25.7982 32.5 23 36.4175 23 41.25C23 46.0825 25.7982 50 29.25 50Z" fill="black"/>
<path d="M61.75 50C65.2018 50 68 46.0825 68 41.25C68 36.4175 65.2018 32.5 61.75 32.5C58.2982 32.5 55.5 36.4175 55.5 41.25C55.5 46.0825 58.2982 50 61.75 50Z" fill="black"/>
<path d="M15.4975 30C15.0334 29.9995 14.5787 29.8699 14.1841 29.6256C13.7895 29.3814 13.4707 29.0321 13.2634 28.6169C13.056 28.2017 12.9684 27.7371 13.0102 27.2749C13.052 26.8127 13.2216 26.3713 13.5 26C21.655 15.125 32.54 15 33 15C33.3283 14.9993 33.6535 15.0634 33.9571 15.1884C34.2607 15.3134 34.5366 15.497 34.7692 15.7287C35.0018 15.9604 35.1865 16.2356 35.3128 16.5387C35.439 16.8417 35.5043 17.1667 35.505 17.495C35.5057 17.8233 35.4416 18.1485 35.3166 18.4521C35.1916 18.7557 35.008 19.0316 34.7763 19.2642C34.5446 19.4968 34.2694 19.6815 33.9663 19.8078C33.6633 19.934 33.3383 19.9993 33.01 20C32.6225 20.005 24.09 20.215 17.5 29C17.2672 29.3111 16.9648 29.5635 16.6172 29.7372C16.2695 29.9108 15.8861 30.0008 15.4975 30ZM75.5025 30C75.1139 30.0008 74.7305 29.9108 74.3828 29.7372C74.0352 29.5635 73.7329 29.3111 73.5 29C66.9 20.1975 58.3475 20.005 57.985 20C57.3241 19.9928 56.6929 19.7246 56.2288 19.254C55.7648 18.7834 55.5055 18.1484 55.5075 17.4875C55.5088 16.8273 55.772 16.1946 56.2393 15.7283C56.7066 15.2619 57.3398 15 58 15C58.46 15 69.3425 15.125 77.5 26C77.7784 26.3713 77.9481 26.8127 77.9898 27.2749C78.0316 27.7371 77.944 28.2017 77.7366 28.6169C77.5293 29.0321 77.2105 29.3814 76.8159 29.6256C76.4214 29.8699 75.9666 29.9995 75.5025 30ZM59.2125 69.6975C59.185 69.5875 56.35 58.75 45.5 58.75C34.65 58.75 31.815 69.5875 31.7875 69.6975C31.7253 69.9564 31.7482 70.2285 31.8526 70.4734C31.9571 70.7183 32.1376 70.9231 32.3675 71.0575C32.5999 71.1929 32.8692 71.2513 33.1368 71.2243C33.4045 71.1974 33.6567 71.0865 33.8575 70.9075C33.88 70.8875 36.39 68.75 45.5 68.75C54.475 68.75 57.0425 70.825 57.14 70.9075C57.3363 71.0935 57.5877 71.2108 57.8563 71.2418C58.1249 71.2728 58.3964 71.2159 58.6299 71.0795C58.8634 70.9432 59.0465 70.7348 59.1515 70.4856C59.2566 70.2364 59.278 69.9599 59.2125 69.6975Z" fill="black"/>
</g>
<defs>
<clipPath id="clip0_1251_6752">
<rect width="90" height="90" fill="white" transform="translate(0.5)"/>
</clipPath>
</defs>
</svg>
